<svg width="48" height="48" viewBox="0 0 48 48" fill="none" xmlns="http://www.w3.org/2000/svg">
<path d="M21.0417 31.003H26.9583C26.7196 32.4211 25.486 33.5015 24 33.5015C22.514 33.5015 21.2804 32.4211 21.0417 31.003ZM24 14.0039C28.1421 14.0039 31.5 17.3618 31.5 21.5039V25.5024L32.9183 28.6625C32.9732 28.7848 33.0016 28.9174 33.0016 29.0515C33.0016 29.5762 32.5763 30.0015 32.0516 30.0015H15.9522C15.8184 30.0015 15.6861 29.9733 15.564 29.9186C15.0851 29.7042 14.8707 29.1422 15.0851 28.6633L16.5 25.5028L16.5001 21.491L16.5045 21.2411C16.6436 17.2103 19.9559 14.0039 24 14.0039Z" fill="#04B6F5"/>
</svg>
