<svg width="24" height="24" viewBox="0 0 24 24" fill="none" xmlns="http://www.w3.org/2000/svg">
<path d="M5.99902 20.5098L5.99901 20.51H6.012H20.5V21.51H6C5.49363 21.51 4.85733 21.339 4.35829 20.9435C3.87728 20.5623 3.5 19.956 3.5 19.01V5.01001C3.5 4.06404 3.87728 3.45768 4.35829 3.07651C4.85733 2.68105 5.49363 2.51001 6 2.51001H19C19.8269 2.51001 20.5 3.18315 20.5 4.01001V17.5H20.049H20.0351L20.0213 17.5008C19.9927 17.5024 19.9674 17.506 19.9464 17.51H6.011V17.5099L5.99863 17.5102C5.75202 17.5163 5.43689 17.5623 5.15201 17.7321C4.84708 17.9139 4.61631 18.2148 4.53322 18.6414L4.53319 18.6414L4.53216 18.647C4.51176 18.7586 4.5 18.8787 4.5 19.01C4.5 19.5395 4.68902 19.9471 5.03088 20.206C5.34586 20.4445 5.72096 20.5026 5.99902 20.5098ZM19.878 17.5273C19.8774 17.5275 19.8778 17.5274 19.8787 17.5271L19.878 17.5273ZM19 16.51H19.5V16.01V4.01001V3.51001H19H17H16.5V4.01001V10.201L15.2236 9.5628L15 9.45099L14.7764 9.5628L13.5 10.201V4.01001V3.51001H13H6V3.50983L5.98667 3.51019C5.71326 3.51748 5.34118 3.57589 5.02806 3.81467C4.68873 4.07344 4.5 4.4803 4.5 5.01001V16.01V16.51H5H19Z" stroke="#222222" stroke-opacity="0.6"/>
</svg>
