<svg width="24" height="24" viewBox="0 0 24 24" fill="none" xmlns="http://www.w3.org/2000/svg">
<path d="M7.05657 2.41795L8.22357 2.06619C9.54607 1.66755 10.9591 2.31179 11.5254 3.57161L12.4271 5.57733C12.9098 6.65117 12.6554 7.91317 11.7944 8.71612L10.3001 10.1096C10.2564 10.1503 10.2288 10.2053 10.2221 10.2647C10.1778 10.6618 10.447 11.4352 11.0673 12.5095C11.5183 13.2908 11.9266 13.8387 12.2741 14.1468C12.5162 14.3615 12.6494 14.4079 12.7062 14.391L14.7165 13.7764C15.8421 13.4323 17.0619 13.8426 17.7506 14.7971L19.0313 16.5721C19.8374 17.6893 19.6925 19.2306 18.6922 20.1779L17.8058 21.0173C16.8494 21.9231 15.4879 22.2606 14.2191 21.9065C11.465 21.1378 8.99571 18.8137 6.78383 14.9826C4.56889 11.1462 3.79169 7.84173 4.50815 5.06994C4.83601 3.80146 5.80214 2.79607 7.05657 2.41795ZM7.48947 3.85413C6.73681 4.081 6.15714 4.68423 5.96042 5.44532C5.35777 7.77684 6.04662 10.7057 8.08287 14.2326C10.1164 17.7548 12.3053 19.815 14.6224 20.4617C15.3836 20.6742 16.2006 20.4717 16.7744 19.9282L17.6608 19.0888C18.1154 18.6582 18.1813 17.9576 17.8149 17.4498L16.5342 15.6748C16.2211 15.241 15.6667 15.0544 15.155 15.2109L13.1397 15.827C11.97 16.1757 10.9083 15.2342 9.76822 13.2595C8.99992 11.9288 8.64183 10.9001 8.73139 10.0982C8.77779 9.68273 8.97137 9.29763 9.27708 9.01254L10.7714 7.61909C11.1628 7.25411 11.2784 6.68047 11.059 6.19237L10.1573 4.18665C9.89988 3.614 9.25761 3.32116 8.65647 3.50236L7.48947 3.85413Z" fill="#222222" fill-opacity="0.6"/>
</svg>
