<svg width="87" height="93" viewBox="0 0 87 93" fill="none" xmlns="http://www.w3.org/2000/svg">
<path d="M1.744 1.11145H83.1514V62.9337H1.744V1.11145Z" fill="white"/>
<path d="M1.74399 0.674862C0.474026 0.572262 1.74399 62.5028 1.30737 62.9348C1.21161 64.2071 82.717 62.9348 83.1594 63.3714C84.4293 63.4729 83.1594 1.5424 83.596 1.11034C83.6838 -0.160758 2.17947 1.11148 1.74399 0.674862ZM2.1806 1.5481H82.7159V62.4971H2.17947L2.1806 1.5481Z" fill="#D5F4FF"/>
<path d="M1.744 19.6935C1.20136 19.6844 1.16032 20.5748 1.744 20.5656C2.2 20.1324 83.6678 21.3978 83.588 20.1301C83.6861 18.8568 2.17834 20.129 1.744 19.6935Z" fill="#D5F4FF"/>
<path d="M1.744 43.3656C1.20136 43.3576 1.16032 44.248 1.744 44.2388C2.2 43.8056 83.6678 45.071 83.588 43.8034C83.6861 42.53 2.17834 43.8079 1.744 43.3656Z" fill="#D5F4FF"/>
<path d="M3.55319 2.8739H8.15081V19.6923H3.55319V2.8739Z" fill="#D5F4FF"/>
<path d="M3.55322 4.12451H8.15084V5.38991H3.55322V4.12451Z" fill="#B0EBFF"/>
<path d="M3.55322 8.39148H8.15084V17.0771H3.55322V8.39148Z" fill="#B0EBFF"/>
<path d="M8.98985 2.8739H13.5875V19.6923H8.98985V2.8739Z" fill="#D5F4FF"/>
<path d="M8.98985 4.12451H13.5875V5.38991H8.98985V4.12451Z" fill="#B0EBFF"/>
<path d="M8.98985 8.39148H13.5875V17.0771H8.98985V8.39148Z" fill="#B0EBFF"/>
<path d="M14.4276 2.8739H19.0253V19.6923H14.4276V2.8739Z" fill="#D5F4FF"/>
<path d="M14.4276 4.12451H19.0252V5.38991H14.4276V4.12451Z" fill="#B0EBFF"/>
<path d="M14.4276 8.39148H19.0252V17.0771H14.4276V8.39148Z" fill="#B0EBFF"/>
<path d="M20.0752 2.8739H24.6728V19.6923H20.0752V2.8739Z" fill="#D5F4FF"/>
<path d="M20.0752 4.12451H24.6728V5.38991H20.0752V4.12451Z" fill="#B0EBFF"/>
<path d="M20.0752 8.39148H24.6728V17.0771H20.0752V8.39148Z" fill="#B0EBFF"/>
<path d="M67.5459 2.69604L71.7047 4.6557L64.5375 19.8679L60.3788 17.9093L67.5459 2.69604Z" fill="#D5F4FF"/>
<path d="M67.0124 3.8269L71.17 5.78656L70.6285 6.93454L66.4698 4.97488L67.0124 3.8269Z" fill="#B0EBFF"/>
<path d="M65.1941 7.68811L69.3528 9.64663L65.6524 17.5047L61.4925 15.545L65.1941 7.68811Z" fill="#B0EBFF"/>
<path d="M71.74 2.8739H76.3376V19.6923H71.74V2.8739Z" fill="#D5F4FF"/>
<path d="M71.74 4.12451H76.3376V5.38991H71.74V4.12451Z" fill="#B0EBFF"/>
<path d="M71.74 8.39148H76.3376V17.0771H71.74V8.39148Z" fill="#B0EBFF"/>
<path d="M77.1732 2.8739H81.772V19.6923H77.1732V2.8739Z" fill="#D5F4FF"/>
<path d="M77.1732 4.12451H81.772V5.38991H77.1732V4.12451Z" fill="#B0EBFF"/>
<path d="M77.1732 8.39148H81.772V17.0771H77.1732V8.39148Z" fill="#B0EBFF"/>
<path d="M3.55319 26.5471H8.15081V43.3655H3.55319V26.5471Z" fill="#D5F4FF"/>
<path d="M3.55322 27.7976H8.15084V29.0664H3.55322V27.7976Z" fill="#B0EBFF"/>
<path d="M3.55322 32.0658H8.15084V40.7515H3.55322V32.0658Z" fill="#B0EBFF"/>
<path d="M8.98985 26.5471H13.5875V43.3655H8.98985V26.5471Z" fill="#D5F4FF"/>
<path d="M8.98985 27.7976H13.5875V29.0664H8.98985V27.7976Z" fill="#B0EBFF"/>
<path d="M8.98985 32.0658H13.5875V40.7515H8.98985V32.0658Z" fill="#B0EBFF"/>
<path d="M14.4276 26.5471H19.0253V43.3655H14.4276V26.5471Z" fill="#D5F4FF"/>
<path d="M14.4276 27.7976H19.0252V29.0664H14.4276V27.7976Z" fill="#B0EBFF"/>
<path d="M14.4276 32.0658H19.0252V40.7515H14.4276V32.0658Z" fill="#B0EBFF"/>
<path d="M19.87 26.5471H24.4676V43.3655H19.87V26.5471Z" fill="#D5F4FF"/>
<path d="M19.87 27.7976H24.4676V29.0664H19.87V27.7976Z" fill="#B0EBFF"/>
<path d="M19.87 32.0658H24.4676V40.7515H19.87V32.0658Z" fill="#B0EBFF"/>
<path d="M60.861 26.5471H65.4586V43.3655H60.861V26.5471Z" fill="#D5F4FF"/>
<path d="M60.861 27.7976H65.4586V29.0664H60.861V27.7976Z" fill="#B0EBFF"/>
<path d="M60.861 32.0658H65.4586V40.7515H60.861V32.0658Z" fill="#B0EBFF"/>
<path d="M66.2976 26.5471H70.8953V43.3655H66.2976V26.5471Z" fill="#D5F4FF"/>
<path d="M66.2977 27.7976H70.8953V29.0664H66.2977V27.7976Z" fill="#B0EBFF"/>
<path d="M66.2977 32.0658H70.8953V40.7515H66.2977V32.0658Z" fill="#B0EBFF"/>
<path d="M71.74 26.5471H76.3376V43.3655H71.74V26.5471Z" fill="#D5F4FF"/>
<path d="M71.74 27.7976H76.3376V29.0664H71.74V27.7976Z" fill="#B0EBFF"/>
<path d="M71.74 32.0658H76.3376V40.7515H71.74V32.0658Z" fill="#B0EBFF"/>
<path d="M77.1732 26.5471H81.772V43.3655H77.1732V26.5471Z" fill="#D5F4FF"/>
<path d="M77.1732 27.7976H81.772V29.0664H77.1732V27.7976Z" fill="#B0EBFF"/>
<path d="M77.1732 32.0658H81.772V40.7515H77.1732V32.0658Z" fill="#B0EBFF"/>
<path d="M3.55319 45.6079H8.15081V62.4263H3.55319V45.6079Z" fill="#D5F4FF"/>
<path d="M3.55322 46.8585H8.15084V48.1273H3.55322V46.8585Z" fill="#B0EBFF"/>
<path d="M3.55322 51.1255H8.15084V59.8111H3.55322V51.1255Z" fill="#B0EBFF"/>
<path d="M8.98985 45.6079H13.5875V62.4263H8.98985V45.6079Z" fill="#D5F4FF"/>
<path d="M8.98985 46.8585H13.5875V48.1273H8.98985V46.8585Z" fill="#B0EBFF"/>
<path d="M8.98985 51.1255H13.5875V59.8111H8.98985V51.1255Z" fill="#B0EBFF"/>
<path d="M14.4276 45.6079H19.0253V62.4263H14.4276V45.6079Z" fill="#D5F4FF"/>
<path d="M14.4276 46.8585H19.0252V48.1273H14.4276V46.8585Z" fill="#B0EBFF"/>
<path d="M14.4276 51.1255H19.0252V59.8111H14.4276V51.1255Z" fill="#B0EBFF"/>
<path d="M19.87 45.6079H24.4676V62.4263H19.87V45.6079Z" fill="#D5F4FF"/>
<path d="M19.87 46.8585H24.4676V48.1273H19.87V46.8585Z" fill="#B0EBFF"/>
<path d="M19.87 51.1255H24.4676V59.8111H19.87V51.1255Z" fill="#B0EBFF"/>
<path d="M60.861 45.6079H65.4586V62.4263H60.861V45.6079Z" fill="#D5F4FF"/>
<path d="M60.861 46.8585H65.4586V48.1273H60.861V46.8585Z" fill="#B0EBFF"/>
<path d="M60.861 51.1255H65.4586V59.8111H60.861V51.1255Z" fill="#B0EBFF"/>
<path d="M66.2977 45.6079H70.8953V62.4263H66.2977V45.6079Z" fill="#D5F4FF"/>
<path d="M66.2976 46.8585H70.8953V48.1273H66.2976V46.8585Z" fill="#B0EBFF"/>
<path d="M66.2976 51.1256H70.8953V59.8113H66.2976V51.1256Z" fill="#B0EBFF"/>
<path d="M71.74 45.6079H76.3376V62.4263H71.74V45.6079Z" fill="#D5F4FF"/>
<path d="M71.74 46.8585H76.3376V48.1273H71.74V46.8585Z" fill="#B0EBFF"/>
<path d="M71.74 51.1256H76.3376V59.8113H71.74V51.1256Z" fill="#B0EBFF"/>
<path d="M77.1732 45.6079H81.772V62.4263H77.1732V45.6079Z" fill="#D5F4FF"/>
<path d="M77.1732 46.8585H81.772V48.1273H77.1732V46.8585Z" fill="#B0EBFF"/>
<path d="M77.1732 51.1256H81.772V59.8113H77.1732V51.1256Z" fill="#B0EBFF"/>
<path d="M55.4232 26.5471H60.0208V43.3655H55.4232V26.5471Z" fill="#D5F4FF"/>
<path d="M55.4232 27.7976H60.0208V29.0664H55.4232V27.7976Z" fill="#B0EBFF"/>
<path d="M55.4232 32.0658H60.0208V40.7515H55.4232V32.0658Z" fill="#B0EBFF"/>
<path d="M55.4232 45.6079H60.0208V62.4263H55.4232V45.6079Z" fill="#D5F4FF"/>
<path d="M55.4232 46.8585H60.0208V48.1273H55.4232V46.8585Z" fill="#B0EBFF"/>
<path d="M55.4232 51.1255H60.0208V59.8111H55.4232V51.1255Z" fill="#B0EBFF"/>
<path d="M25.3716 26.5471H29.9693V43.3655H25.3716V26.5471Z" fill="#D5F4FF"/>
<path d="M25.3716 27.7976H29.9692V29.0664H25.3716V27.7976Z" fill="#B0EBFF"/>
<path d="M25.3716 32.0658H29.9692V40.7515H25.3716V32.0658Z" fill="#B0EBFF"/>
<path d="M25.3716 45.6079H29.9693V62.4263H25.3716V45.6079Z" fill="#D5F4FF"/>
<path d="M25.3716 46.8585H29.9692V48.1273H25.3716V46.8585Z" fill="#B0EBFF"/>
<path d="M25.3716 51.1255H29.9692V59.8111H25.3716V51.1255Z" fill="#B0EBFF"/>
<path d="M13.8977 68C13.5641 68.0024 13.2351 68.0781 12.9338 68.2216C12.6326 68.3651 12.3666 68.5729 12.1545 68.8305C11.9424 69.0881 11.7894 69.389 11.7063 69.7122C11.6232 70.0353 11.612 70.3727 11.6736 70.7007H16.1299C16.1915 70.3721 16.1802 70.034 16.0967 69.7102C16.0131 69.3865 15.8594 69.0851 15.6464 68.8275C15.4334 68.5698 15.1664 68.3621 14.8642 68.2191C14.562 68.0761 14.2321 68.0013 13.8977 68Z" fill="#D7E9F5"/>
<path d="M13.8647 68.8174C13.9697 68.8165 14.0739 68.8365 14.1711 68.8763C14.2684 68.9161 14.3567 68.9748 14.431 69.0491C14.5053 69.1234 14.564 69.2117 14.6038 69.309C14.6436 69.4062 14.6636 69.5104 14.6627 69.6154V91.606C14.6746 91.7174 14.663 91.83 14.6286 91.9365C14.5942 92.0431 14.5377 92.1412 14.4629 92.2245C14.388 92.3078 14.2965 92.3744 14.1942 92.42C14.0919 92.4656 13.9812 92.4892 13.8692 92.4892C13.7572 92.4892 13.6465 92.4656 13.5442 92.42C13.442 92.3744 13.3504 92.3078 13.2756 92.2245C13.2008 92.1412 13.1443 92.0431 13.1099 91.9365C13.0754 91.83 13.0638 91.7174 13.0758 91.606V69.6109C13.0755 69.507 13.0957 69.404 13.1351 69.3079C13.1746 69.2118 13.2326 69.1244 13.3059 69.0507C13.3792 68.9771 13.4662 68.9185 13.5621 68.8785C13.658 68.8385 13.7608 68.8177 13.8647 68.8174Z" fill="#D7E9F5"/>
<path d="M3.82242 71.2786C3.46446 71.2935 3.29574 71.8224 3.5226 72.0766C3.20454 72.1485 3.0666 72.6273 3.28434 72.8667C2.96514 72.9373 2.82833 73.4173 3.04493 73.6555C2.72573 73.7274 2.58894 74.2062 2.80554 74.4444C2.48634 74.5162 2.34953 74.995 2.56614 75.2344C2.24694 75.3063 2.11013 75.7851 2.32673 76.0233C2.24494 76.0469 2.17122 76.0926 2.1137 76.1553C2.05618 76.2181 2.01708 76.2955 2.00069 76.379C1.97909 76.4528 1.97569 76.5308 1.99078 76.6062C2.00587 76.6817 2.039 76.7524 2.08734 76.8122C1.76928 76.884 1.63133 77.3628 1.84793 77.6022C1.52987 77.674 1.39194 78.1528 1.60854 78.3911C1.2255 78.472 1.11834 79.1572 1.52646 79.278C1.92546 79.3612 2.15459 78.7605 1.90493 78.4903C2.22413 78.4196 2.36094 77.9397 2.14434 77.7014C2.4624 77.6296 2.60033 77.1508 2.38373 76.9114C2.70179 76.8407 2.83974 76.3608 2.62313 76.1225C2.9412 76.0507 3.07914 75.5719 2.86254 75.3336C3.1806 75.2618 3.31853 74.7819 3.10193 74.5436C3.41999 74.4729 3.55793 73.993 3.34019 73.7547C3.65939 73.6829 3.7962 73.2041 3.5796 72.9658C3.8988 72.894 4.0356 72.4141 3.819 72.1758C4.23738 72.0926 4.30692 71.2969 3.82242 71.2786ZM5.34317 71.2786C4.85868 71.298 4.92936 72.0926 5.34317 72.1735C5.12886 72.4118 5.26338 72.8917 5.58258 72.9636C5.36826 73.2018 5.50277 73.6806 5.82197 73.7524C5.60766 73.9907 5.74218 74.4706 6.06138 74.5413C5.84706 74.7796 5.98157 75.2595 6.30077 75.3313C6.08645 75.5696 6.22097 76.0484 6.53903 76.1202C6.32585 76.3585 6.46037 76.8384 6.77843 76.9091C6.56525 77.1485 6.69978 77.6273 7.01784 77.6991C6.80466 77.9374 6.93918 78.4162 7.25724 78.488C7.00758 78.7582 7.23671 79.359 7.63571 79.2757C8.04383 79.1538 7.93667 78.4698 7.55363 78.3888C7.76681 78.1506 7.6323 77.6718 7.31424 77.5999C7.52742 77.3605 7.39404 76.8817 7.07484 76.8099C7.12317 76.7501 7.1563 76.6794 7.17139 76.604C7.18648 76.5285 7.18308 76.4506 7.16148 76.3767C7.1451 76.2932 7.10599 76.2158 7.04847 76.153C6.99095 76.0903 6.91723 76.0446 6.83543 76.021C6.8837 75.9609 6.91677 75.8901 6.93185 75.8145C6.94693 75.7389 6.94358 75.6607 6.92208 75.5867C6.90551 75.5034 6.86632 75.4262 6.80881 75.3637C6.7513 75.3011 6.67768 75.2556 6.59603 75.2322C6.80921 74.9928 6.6747 74.514 6.35664 74.4421C6.56982 74.2039 6.43643 73.7251 6.11723 73.6533C6.33041 73.415 6.19704 72.9351 5.87784 72.8644C6.09216 72.625 5.95763 72.1462 5.63843 72.0744C5.86643 71.8224 5.69657 71.2935 5.33861 71.2764L5.34317 71.2786ZM3.82584 71.4531C4.1097 71.4827 3.9843 72.0516 3.7221 72.0048C3.4941 71.9227 3.5967 71.4656 3.82584 71.4531ZM5.33976 71.4531C5.56776 71.4667 5.6715 71.9239 5.4435 72.0048C5.1813 72.0504 5.0616 71.4816 5.33976 71.4531ZM3.58643 72.2419C4.10171 72.4232 3.29915 73.2394 3.36755 72.4699C3.37674 72.4143 3.40257 72.3627 3.44164 72.322C3.48071 72.2813 3.53119 72.2534 3.58643 72.2419ZM5.57915 72.2419C5.6344 72.2534 5.68488 72.2813 5.72395 72.322C5.76302 72.3627 5.78885 72.4143 5.79804 72.4699C5.86644 73.2383 5.06159 72.4209 5.57915 72.2408V72.2419ZM3.3516 73.0308C3.86688 73.2109 3.06432 74.0272 3.13272 73.2588C3.1419 73.2032 3.16773 73.1516 3.2068 73.1109C3.24587 73.0702 3.29635 73.0423 3.3516 73.0308ZM5.82311 73.0308C5.87842 73.0421 5.92899 73.07 5.96808 73.1107C6.00718 73.1514 6.03296 73.2031 6.042 73.2588C6.1104 74.0238 5.30783 73.2064 5.82311 73.0308ZM3.11219 73.8197C3.62747 73.9998 2.82491 74.8161 2.89331 74.0477C2.9025 73.992 2.92833 73.9405 2.9674 73.8998C3.00647 73.8591 3.05695 73.8312 3.11219 73.8197ZM6.06251 73.8197C6.11776 73.8312 6.16824 73.8591 6.20731 73.8998C6.24638 73.9405 6.27221 73.992 6.28139 74.0477C6.34979 74.8126 5.54724 73.9964 6.06251 73.8197ZM2.87051 74.6086C3.38579 74.7898 2.58324 75.6061 2.65164 74.8366C2.66067 74.7812 2.68616 74.7299 2.7248 74.6892C2.76343 74.6485 2.81341 74.6204 2.86823 74.6086H2.87051ZM6.29963 74.6086C6.35488 74.62 6.40536 74.648 6.44443 74.6887C6.4835 74.7293 6.50933 74.7809 6.51852 74.8366C6.58463 75.6061 5.78207 74.7887 6.29735 74.6086H6.29963ZM2.63226 75.3986C3.1464 75.5787 2.34383 76.395 2.41223 75.6266C2.42142 75.5709 2.44725 75.5194 2.48632 75.4787C2.52539 75.438 2.57587 75.4101 2.63111 75.3986H2.63226ZM6.5379 75.3986C6.59342 75.4097 6.64423 75.4375 6.68354 75.4782C6.72286 75.519 6.7488 75.5707 6.75792 75.6266C6.82518 76.3915 6.02376 75.5742 6.5379 75.3986ZM2.39285 76.1875C2.90699 76.3676 2.10444 77.1838 2.17284 76.4155C2.18202 76.3598 2.20785 76.3082 2.24692 76.2675C2.28599 76.2268 2.33647 76.1989 2.39172 76.1875H2.39285ZM6.77729 76.1875C6.83275 76.1987 6.88348 76.2266 6.92276 76.2673C6.96205 76.308 6.98805 76.3597 6.99732 76.4155C7.06458 77.1816 6.26315 76.3642 6.77729 76.1875ZM2.15346 76.9764C2.6676 77.1576 1.86503 77.9739 1.93343 77.2044C1.9427 77.1486 1.9687 77.0969 2.00799 77.0561C2.04728 77.0154 2.098 76.9876 2.15346 76.9764ZM7.01669 76.9764C7.07215 76.9876 7.12288 77.0154 7.16217 77.0561C7.20146 77.0969 7.22745 77.1486 7.23671 77.2044C7.30397 77.9704 6.50255 77.1531 7.01669 76.9764ZM1.91405 77.7664C2.42819 77.9465 1.62564 78.7627 1.69404 77.9944C1.7033 77.9389 1.72901 77.8875 1.76783 77.8469C1.80666 77.8062 1.85681 77.7782 1.91177 77.7664H1.91405ZM7.25609 77.7664C7.31148 77.7778 7.36212 77.8056 7.40139 77.8463C7.44065 77.887 7.4667 77.9386 7.47611 77.9944C7.54109 78.7627 6.73968 77.9511 7.25382 77.7664H7.25609ZM1.67009 78.5553C2.18423 78.7354 1.38282 79.5516 1.45008 78.7833C1.45949 78.7275 1.48554 78.6759 1.5248 78.6352C1.56406 78.5945 1.61471 78.5667 1.67009 78.5553ZM7.49093 78.5553C7.54632 78.5667 7.59696 78.5945 7.63623 78.6352C7.67549 78.6759 7.70154 78.7275 7.71095 78.7833C7.77821 79.5493 6.97679 78.732 7.49093 78.5553Z" fill="#322F4A"/>
<path d="M8.8407 79.0101H0C0.02394 84.6075 8.8236 84.6041 8.8407 79.0101Z" fill="#F6BA34"/>
<path d="M6.4125 79.0101C6.13662 81.1545 5.04449 82.486 4.04243 83.2715C6.59261 83.4995 8.85665 81.5022 8.84069 79.0101H6.4125Z" fill="#EA792F"/>
<path d="M23.9069 71.2786C24.2649 71.2935 24.4348 71.8224 24.2068 72.0766C24.5248 72.1485 24.6628 72.6273 24.4462 72.8667C24.7642 72.9373 24.9022 73.4173 24.6844 73.6555C25.0036 73.7274 25.1404 74.2062 24.9238 74.4444C25.243 74.5162 25.3798 74.995 25.1632 75.2344C25.4824 75.3063 25.6192 75.7851 25.4026 76.0233C25.4844 76.0469 25.5581 76.0926 25.6157 76.1553C25.6732 76.2181 25.7123 76.2955 25.7287 76.379C25.7503 76.4528 25.7537 76.5308 25.7386 76.6062C25.7235 76.6817 25.6904 76.7524 25.642 76.8122C25.9612 76.884 26.098 77.3628 25.8814 77.6022C26.1995 77.674 26.3374 78.1528 26.1208 78.3911C26.5039 78.472 26.611 79.1572 26.2029 79.278C25.8039 79.3612 25.5748 78.7605 25.8244 78.4903C25.5064 78.4196 25.3684 77.9397 25.585 77.7014C25.267 77.6296 25.129 77.1508 25.3456 76.9114C25.0276 76.8407 24.8896 76.3608 25.1062 76.1225C24.7882 76.0507 24.6502 75.5719 24.8668 75.3336C24.5488 75.2618 24.4108 74.7819 24.6286 74.5436C24.3094 74.4729 24.1726 73.993 24.3892 73.7547C24.07 73.6829 23.9332 73.2041 24.1498 72.9658C23.8306 72.894 23.6938 72.4141 23.9104 72.1758C23.492 72.0926 23.4224 71.2969 23.9069 71.2786ZM22.3862 71.2786C22.8707 71.298 22.8 72.0926 22.3862 72.1735C22.6005 72.4118 22.466 72.8917 22.1468 72.9636C22.3611 73.2018 22.2266 73.6806 21.9074 73.7524C22.1217 73.9907 21.9872 74.4706 21.668 74.5413C21.8823 74.7796 21.7478 75.2595 21.4286 75.3313C21.6429 75.5696 21.5084 76.0484 21.1903 76.1202C21.4035 76.3585 21.269 76.8384 20.9509 76.9091C21.1641 77.1485 21.0296 77.6273 20.7115 77.6991C20.9258 77.9374 20.7902 78.4162 20.4721 78.488C20.7218 78.7582 20.4926 79.359 20.0936 79.2757C19.6855 79.1538 19.7927 78.4698 20.1757 78.3888C19.9625 78.1506 20.0971 77.6718 20.4151 77.5999C20.2019 77.3605 20.3365 76.8817 20.6545 76.8099C20.6062 76.7501 20.5731 76.6794 20.558 76.604C20.5429 76.5285 20.5463 76.4506 20.5679 76.3767C20.5843 76.2932 20.6234 76.2158 20.6809 76.153C20.7384 76.0903 20.8121 76.0446 20.8939 76.021C20.8457 75.9609 20.8126 75.8901 20.7975 75.8145C20.7824 75.7389 20.7858 75.6607 20.8073 75.5867C20.8239 75.5034 20.863 75.4262 20.9206 75.3637C20.9781 75.3011 21.0517 75.2556 21.1333 75.2322C20.9201 74.9928 21.0547 74.514 21.3727 74.4421C21.1595 74.2039 21.2941 73.7251 21.6121 73.6533C21.3989 73.415 21.5335 72.9351 21.8515 72.8644C21.6383 72.625 21.7717 72.1462 22.0909 72.0744C21.8629 71.8224 22.0328 71.2935 22.3907 71.2764L22.3862 71.2786ZM23.9035 71.4531C23.6208 71.4827 23.7462 72.0516 24.0073 72.0048C24.2353 71.9227 24.1327 71.4656 23.9035 71.4531ZM22.3896 71.4531C22.1616 71.4667 22.0579 71.9239 22.2859 72.0048C22.5481 72.0504 22.6735 71.4816 22.3896 71.4531ZM24.1429 72.2419C23.6276 72.4232 24.4302 73.2394 24.3629 72.4699C24.3532 72.4143 24.3271 72.3629 24.2879 72.3222C24.2487 72.2816 24.1982 72.2536 24.1429 72.2419ZM22.1502 72.2419C22.095 72.2534 22.0445 72.2813 22.0054 72.322C21.9663 72.3627 21.9405 72.4143 21.9313 72.4699C21.8629 73.2383 22.6655 72.4209 22.1502 72.2408V72.2419ZM24.3823 73.032C23.867 73.2121 24.6696 74.0283 24.6012 73.26C24.592 73.2043 24.5662 73.1527 24.5271 73.112C24.488 73.0713 24.4376 73.0434 24.3823 73.032ZM21.9108 73.032C21.8555 73.0433 21.8049 73.0711 21.7658 73.1119C21.7267 73.1526 21.701 73.2042 21.6919 73.26C21.6235 74.0249 22.4261 73.2075 21.9108 73.032ZM24.6217 73.8208C24.1064 74.001 24.909 74.8172 24.8406 74.0488C24.8314 73.9932 24.8056 73.9416 24.7665 73.9009C24.7274 73.8602 24.677 73.8323 24.6217 73.8208ZM21.6714 73.8208C21.6162 73.8323 21.5657 73.8602 21.5266 73.9009C21.4875 73.9416 21.4617 73.9932 21.4525 74.0488C21.3841 74.8149 22.1867 73.9975 21.6725 73.8208H21.6714ZM24.8634 74.6097C24.3481 74.791 25.1507 75.6072 25.0823 74.8377C25.0732 74.7815 25.0471 74.7295 25.0076 74.6885C24.968 74.6476 24.9169 74.6197 24.8611 74.6086L24.8634 74.6097ZM21.4354 74.6097C21.38 74.621 21.3292 74.6488 21.29 74.6895C21.2507 74.7302 21.2247 74.7819 21.2154 74.8377C21.1459 75.6061 21.9473 74.7887 21.4331 74.6086L21.4354 74.6097ZM25.1028 75.3997C24.5875 75.5799 25.3901 76.3961 25.3217 75.6277C25.3125 75.5721 25.2867 75.5205 25.2476 75.4798C25.2085 75.4391 25.158 75.4112 25.1028 75.3997ZM21.196 75.3997C21.1405 75.4108 21.0897 75.4386 21.0504 75.4794C21.0111 75.5201 20.9851 75.5719 20.976 75.6277C20.9087 76.3927 21.7102 75.5753 21.196 75.3997ZM25.3411 76.1886C24.8269 76.3687 25.6295 77.185 25.5611 76.4166C25.5519 76.361 25.5261 76.3094 25.487 76.2687C25.4479 76.228 25.3974 76.2001 25.3422 76.1886H25.3411ZM20.9566 76.1886C20.9012 76.1999 20.8504 76.2277 20.8112 76.2684C20.7719 76.3091 20.7459 76.3608 20.7366 76.4166C20.6693 77.1827 21.4708 76.3653 20.9566 76.1886ZM25.5816 76.9764C25.0675 77.1576 25.87 77.9739 25.8016 77.2044C25.7924 77.1487 25.7666 77.0971 25.7275 77.0564C25.6885 77.0157 25.638 76.9878 25.5827 76.9764H25.5816ZM20.7184 76.9764C20.663 76.9878 20.6123 77.0156 20.5731 77.0563C20.5338 77.097 20.5078 77.1486 20.4983 77.2044C20.4311 77.9704 21.2325 77.1531 20.7184 76.9764ZM25.821 77.7664C25.3069 77.9465 26.1094 78.7627 26.041 77.9944C26.0315 77.9381 26.005 77.8861 25.9651 77.8453C25.9251 77.8046 25.8737 77.777 25.8176 77.7664H25.821ZM20.479 77.7664C20.4237 77.7781 20.3732 77.806 20.334 77.8467C20.2948 77.8873 20.2686 77.9388 20.2589 77.9944C20.1883 78.7627 20.9908 77.9511 20.4755 77.7664H20.479ZM26.065 78.5553C25.5508 78.7354 26.3534 79.5516 26.285 78.7833C26.2757 78.7274 26.2497 78.6758 26.2104 78.635C26.1711 78.5943 26.1204 78.5665 26.065 78.5553ZM20.2441 78.5553C20.1889 78.5669 20.1384 78.5949 20.0992 78.6355C20.06 78.6762 20.0338 78.7276 20.0241 78.7833C19.9568 79.5493 20.7583 78.732 20.2441 78.5553Z" fill="#322F4A"/>
<path d="M18.8887 79.0101H27.7294C27.7054 84.6075 18.9115 84.6041 18.8887 79.0101Z" fill="#F6BA34"/>
<path d="M25.2807 79.0101C25.0036 81.1545 23.9058 82.486 22.9106 83.2715C25.4596 83.4995 27.7248 81.5022 27.7077 79.0101H25.2807Z" fill="#EA792F"/>
<path d="M11.7443 69.563C11.6195 69.9298 11.5936 70.323 11.669 70.703H16.1253C16.2008 70.323 16.1748 69.9298 16.05 69.563H11.7443Z" fill="#C3D2D1"/>
<path d="M3.3687 70.1398C2.3427 70.1238 2.33472 71.7437 3.3687 71.7278H24.3607C25.3867 71.7437 25.3946 70.1238 24.3607 70.1398H3.3687Z" fill="#D7E9F5"/>
<path d="M13.0712 86.7747C13.0792 86.8887 13.0553 91.6128 13.0792 91.7109H14.6501C14.6741 91.6128 14.6501 86.883 14.6581 86.7747H13.0712Z" fill="#C3D2D1"/>
<path d="M8.21141 87.3549H19.4153C21.2393 87.3458 20.7457 89.7489 20.8016 90.9048C20.8019 91.087 20.7662 91.2674 20.6967 91.4357C20.6271 91.604 20.525 91.757 20.3962 91.8857C20.2674 92.0145 20.1145 92.1166 19.9462 92.1862C19.7779 92.2557 19.5975 92.2914 19.4153 92.2911H8.21141C8.02929 92.2914 7.84889 92.2557 7.68057 92.1862C7.51224 92.1166 7.35931 92.0145 7.23052 91.8857C7.10174 91.757 6.99964 91.604 6.93008 91.4357C6.86052 91.2674 6.82487 91.087 6.82517 90.9048C6.88559 89.7477 6.38171 87.348 8.21141 87.3549Z" fill="#D7E9F5"/>
<path d="M13.0712 70.7325V72.2362H14.6581V70.7325H13.0712Z" fill="#C3D2D1"/>
<path d="M3.3687 70.1398C2.3427 70.1238 2.33472 71.7437 3.3687 71.7278H24.3607C25.3867 71.7437 25.3946 70.1238 24.3607 70.1398H3.3687Z" fill="#D7E9F5"/>
<path d="M8.52379 87.9967C8.14645 87.9967 8.14531 88.5849 8.52379 88.5792H18.8123V91.0872C18.8098 91.127 18.8155 91.1669 18.829 91.2044C18.8425 91.2419 18.8636 91.2762 18.8908 91.3053C18.9181 91.3343 18.9511 91.3575 18.9877 91.3733C19.0243 91.3891 19.0637 91.3973 19.1036 91.3973C19.1434 91.3973 19.1829 91.3891 19.2194 91.3733C19.256 91.3575 19.289 91.3343 19.3163 91.3053C19.3436 91.2762 19.3646 91.2419 19.3781 91.2044C19.3916 91.1669 19.3973 91.127 19.3948 91.0872V88.2885C19.3948 88.2113 19.3642 88.1373 19.3098 88.0826C19.2553 88.0279 19.1813 87.997 19.1041 87.9967H8.52379Z" fill="#C3D2D1"/>
<path d="M84.9437 86.738H63.4798L61.478 92.4529H82.9419L84.9437 86.738Z" fill="#C3D2D1"/>
<path d="M63.4798 86.738H84.9437L86.9456 92.4529H65.4817L63.4798 86.738Z" fill="#D7E9F5"/>
<path d="M66.0232 87.9704L66.9021 91.0233H68.994L68.8435 90.5001H67.3786L66.6513 87.9704H66.0232ZM69.4067 87.9704L69.2003 91.0233H69.841L69.8684 90.4077H71.0084L71.3869 91.0233H72.031L70.093 87.9704H69.4067ZM71.282 87.9704L73.0228 91.0233H73.5928L73.4047 88.6407L74.6017 91.0233H75.1717L75.1386 87.9704H74.466L74.6689 90.2607L73.5164 87.9704H72.8962L73.0809 90.2573L71.95 87.9704H71.282ZM75.2549 87.9704L76.8212 89.8925L77.1473 91.0233H77.772L77.446 89.8925L77.8598 87.9704H77.1564L76.9626 89.319L75.9514 87.9704H75.2549ZM78.2405 87.9704L79.1195 91.0233H81.3995L81.249 90.5001H79.596L79.368 89.7089H80.8295L80.679 89.1857H79.2175L79.0192 88.4948H80.5981L80.4464 87.9704H78.2405ZM81.0244 87.9704L81.9034 91.0233H82.5315L82.1827 89.8127C83.741 89.726 83.1152 90.0076 83.7285 91.0233H84.4034L84.3703 90.9093C83.9075 90.54 84.1298 89.677 83.4219 89.5482C84.0956 89.2734 83.643 88.2497 83.0867 88.0491C82.8165 87.8997 81.3413 87.9978 81.0244 87.9704ZM81.803 88.4948C82.2077 88.5438 83.0126 88.3022 83.1175 88.8836C83.3614 89.5185 82.3354 89.2256 82.0322 89.2894L81.803 88.4948ZM69.947 88.6909L70.688 89.8845H69.89L69.947 88.6909Z" fill="#22263F"/>
</svg>
